<svg width="32" height="32" viewBox="0 0 32 32" fill="none" xmlns="http://www.w3.org/2000/svg">
<g id="4829869_arrow_next_right_icon 1">
<g id="Layer 2">
<path id="Vector" d="M22.0001 9.00002C21.9063 9.09298 21.8319 9.20359 21.7812 9.32545C21.7304 9.4473 21.7043 9.57801 21.7043 9.71002C21.7043 9.84203 21.7304 9.97274 21.7812 10.0946C21.8319 10.2165 21.9063 10.3271 22.0001 10.42L26.6001 15.02H3.06006C2.79484 15.02 2.54049 15.1254 2.35295 15.3129C2.16542 15.5005 2.06006 15.7548 2.06006 16.02C2.06006 16.2852 2.16542 16.5396 2.35295 16.7271C2.54049 16.9147 2.79484 17.02 3.06006 17.02H26.5801L22.0001 21.59C21.8138 21.7774 21.7093 22.0308 21.7093 22.295C21.7093 22.5592 21.8138 22.8127 22.0001 23C22.1874 23.1863 22.4409 23.2908 22.7051 23.2908C22.9692 23.2908 23.2227 23.1863 23.4101 23L29.7701 16.64C29.8557 16.5579 29.9238 16.4593 29.9703 16.3502C30.0168 16.2411 30.0408 16.1237 30.0408 16.005C30.0408 15.8864 30.0168 15.769 29.9703 15.6599C29.9238 15.5507 29.8557 15.4522 29.7701 15.37L23.4201 9.00002C23.3271 8.90629 23.2165 8.8319 23.0946 8.78113C22.9728 8.73036 22.8421 8.70422 22.7101 8.70422C22.578 8.70422 22.4473 8.73036 22.3255 8.78113C22.2036 8.8319 22.093 8.90629 22.0001 9.00002Z" fill="#2F87CC"/>
</g>
</g>
</svg>
