<svg width="60" height="54" viewBox="0 0 60 54" fill="none" xmlns="http://www.w3.org/2000/svg">
<g id="Standard Collection 19">
<g id="Clip path group">
<mask id="mask0_5224_157" style="mask-type:luminance" maskUnits="userSpaceOnUse" x="0" y="0" width="60" height="54">
<g id="clip0">
<path id="Vector" d="M60 0.5H0V53.5H60V0.5Z" fill="white"/>
</g>
</mask>
<g mask="url(#mask0_5224_157)">
<g id="Group">
<path id="Vector_2" d="M33.469 23.0402C32.1071 23.0402 30.801 22.6551 29.838 21.9696C28.875 21.2841 28.334 20.3544 28.334 19.385C28.334 18.4156 28.875 17.4859 29.838 16.8004C30.801 16.1149 32.1071 15.7298 33.469 15.7298C37.7803 15.7265 41.9134 14.5059 44.962 12.3361C48.0103 10.1662 49.7253 7.22416 49.7302 4.15542C49.7302 3.18601 50.2712 2.2563 51.2344 1.57082C52.1971 0.885344 53.5034 0.500244 54.8651 0.500244C56.2272 0.500244 57.5334 0.885344 58.4962 1.57082C59.4593 2.2563 60.0003 3.18601 60.0003 4.15542C59.9922 9.1623 57.1946 13.9625 52.2207 17.5028C47.2468 21.0432 40.5031 23.0346 33.469 23.0402Z" fill="#EC6C0C"/>
<path id="Vector_3" d="M5.13521 53.5C3.77329 53.5 2.46712 53.115 1.50408 52.4294C0.541038 51.7438 0 50.8143 0 49.8447C0.00790831 44.8378 2.80572 40.0375 7.77959 36.4971C12.7535 32.9566 19.4972 30.9652 26.5313 30.9597C27.8932 30.9597 29.1993 31.3448 30.1623 32.0304C31.1253 32.7157 31.6663 33.6455 31.6663 34.615C31.6663 35.5843 31.1253 36.5141 30.1623 37.1994C29.1993 37.885 27.8932 38.2701 26.5313 38.2701C22.2201 38.2736 18.0869 39.4941 15.0384 41.6639C11.9898 43.834 10.275 46.7759 10.2701 49.8447C10.2701 50.814 9.7291 51.7438 8.76614 52.4294C7.80318 53.115 6.49711 53.5 5.13521 53.5Z" fill="#BE3818"/>
<path id="Vector_4" d="M33.469 53.4999C32.1145 53.4919 30.8192 53.1033 29.8654 52.4188C28.9115 51.7342 28.3763 50.8089 28.3763 49.8446C28.3763 48.8806 28.9115 47.9553 29.8654 47.2707C30.8192 46.5862 32.1145 46.1976 33.469 46.1896C35.6044 46.1896 37.7191 45.8901 39.6918 45.3086C41.6648 44.7269 43.4572 43.8741 44.9673 42.7995C46.4774 41.7246 47.675 40.4485 48.4922 39.0444C49.3095 37.6399 49.7299 36.1347 49.7299 34.6147C49.7299 33.0946 49.3095 31.5896 48.4922 30.1852C47.675 28.781 46.4774 27.505 44.9673 26.4301C43.4572 25.3553 41.6648 24.5027 39.6918 23.9211C37.7191 23.3394 35.6044 23.04 33.469 23.04C32.1071 23.04 30.801 22.6549 29.838 21.9694C28.875 21.2839 28.334 20.3542 28.334 19.3848C28.334 18.4154 28.875 17.4857 29.838 16.8002C30.801 16.1147 32.1071 15.7296 33.469 15.7296C36.9613 15.7206 40.4215 16.2024 43.6516 17.1474C46.882 18.0924 49.8181 19.482 52.2917 21.2366C54.7656 22.9911 56.7288 25.0761 58.0681 27.3719C59.4073 29.6675 60.097 32.1288 60.097 34.6147C60.097 37.1005 59.4073 39.562 58.0681 41.8577C56.7288 44.1534 54.7656 46.2384 52.2917 47.9928C49.8181 49.7475 46.882 51.1372 43.6516 52.0822C40.4215 53.0273 36.9613 53.5089 33.469 53.4999Z" fill="url(#paint0_linear_5224_157)"/>
<path id="Vector_5" d="M51.8579 17.7545C54.4334 15.9959 56.4827 13.8845 57.8818 11.5474C59.2811 9.21032 60.0014 6.69587 59.9996 4.15542C59.9996 3.18601 59.4586 2.2563 58.4955 1.57082C57.5327 0.885344 56.2265 0.500244 54.8647 0.500244C53.5026 0.500244 52.1964 0.885344 51.2336 1.57082C50.2705 2.2563 49.7295 3.18601 49.7295 4.15542C49.7281 6.12159 49.0233 8.05513 47.6813 9.77369C46.3396 11.4923 44.4048 12.9392 42.0596 13.9781C45.6647 14.7285 49.0047 16.0157 51.8579 17.7545Z" fill="url(#paint1_linear_5224_157)"/>
<path id="Vector_6" d="M26.5319 38.27C19.4955 38.27 12.7472 36.2804 7.77172 32.7387C2.79619 29.1972 0.000976562 24.3936 0.000976562 19.385C0.000976562 14.3764 2.79619 9.57292 7.77172 6.03129C12.7472 2.48966 19.4955 0.5 26.5319 0.5C27.8938 0.5 29.1999 0.885099 30.1629 1.57058C31.126 2.25606 31.667 3.18577 31.667 4.15518C31.667 5.12459 31.126 6.05429 30.1629 6.73978C29.1999 7.42526 27.8938 7.81035 26.5319 7.81035C24.3965 7.81035 22.282 8.10973 20.3092 8.69141C18.3363 9.2731 16.5437 10.1257 15.0337 11.2005C13.5238 12.2753 12.326 13.5513 11.5088 14.9556C10.6916 16.3599 10.2711 17.865 10.2711 19.385C10.2711 20.905 10.6916 22.4101 11.5088 23.8144C12.326 25.2187 13.5238 26.4947 15.0337 27.5696C16.5437 28.6442 18.3363 29.497 20.3092 30.0787C22.282 30.6602 24.3965 30.9597 26.5319 30.9597C27.8938 30.9597 29.1999 31.3447 30.1629 32.0303C31.126 32.7156 31.667 33.6454 31.667 34.6147C31.667 35.5843 31.126 36.5141 30.1629 37.1994C29.1999 37.885 27.8938 38.27 26.5319 38.27Z" fill="url(#paint2_linear_5224_157)"/>
<path id="Vector_7" d="M8.14221 36.2454C5.56648 38.0041 3.51731 40.1153 2.11806 42.4525C0.718796 44.7897 -0.00162328 47.3041 0.000175767 49.8447C-0.00543313 50.3274 0.123248 50.8058 0.378794 51.2529C0.634338 51.6998 1.0117 52.1064 1.48909 52.4489C1.96647 52.7917 2.53445 53.0637 3.16025 53.2491C3.78604 53.4347 4.45729 53.5303 5.13521 53.5303C5.81317 53.5303 6.48441 53.4347 7.11021 53.2491C7.736 53.0637 8.30397 52.7917 8.78136 52.4489C9.25874 52.1064 9.63609 51.6998 9.89164 51.2529C10.1472 50.8058 10.2759 50.3274 10.2702 49.8447C10.2716 47.8786 10.9765 45.945 12.3185 44.2263C13.6605 42.5076 15.5953 41.0606 17.9406 40.0218C14.3354 39.2714 10.9955 37.9841 8.14221 36.2454Z" fill="#E64A1A"/>
</g>
</g>
</g>
</g>
<defs>
<linearGradient id="paint0_linear_5224_157" x1="44.2154" y1="53.4999" x2="44.2154" y2="15.7295" gradientUnits="userSpaceOnUse">
<stop stop-color="#E9592D"/>
<stop offset="1" stop-color="#F39519"/>
</linearGradient>
<linearGradient id="paint1_linear_5224_157" x1="46.9213" y1="15.9773" x2="58.1087" y2="1.07784" gradientUnits="userSpaceOnUse">
<stop offset="0.005" stop-color="#F39519"/>
<stop offset="0.146" stop-color="#F39519"/>
<stop offset="1" stop-color="#F39519"/>
</linearGradient>
<linearGradient id="paint2_linear_5224_157" x1="15.834" y1="38.27" x2="15.834" y2="0.5" gradientUnits="userSpaceOnUse">
<stop stop-color="#E9592D"/>
<stop offset="1" stop-color="#F39519"/>
</linearGradient>
</defs>
</svg>
