<svg width="23" height="13" viewBox="0 0 23 13" fill="none" xmlns="http://www.w3.org/2000/svg">
<path id="Vector" d="M22.2076 2.20732L12.2076 12.2073C12.1147 12.3003 12.0044 12.3741 11.883 12.4244C11.7616 12.4747 11.6315 12.5006 11.5001 12.5006C11.3687 12.5006 11.2385 12.4747 11.1171 12.4244C10.9957 12.3741 10.8854 12.3003 10.7926 12.2073L0.792568 2.20732C0.604927 2.01968 0.499512 1.76519 0.499512 1.49982C0.499512 1.23446 0.604927 0.979964 0.792568 0.792323C0.980208 0.604682 1.2347 0.499268 1.50007 0.499268C1.76543 0.499268 2.01993 0.604682 2.20757 0.792323L11.5001 10.0861L20.7926 0.792323C20.8855 0.699413 20.9958 0.625713 21.1172 0.57543C21.2386 0.525147 21.3687 0.499268 21.5001 0.499268C21.6315 0.499268 21.7616 0.525147 21.883 0.57543C22.0044 0.625713 22.1147 0.699413 22.2076 0.792323C22.3005 0.885233 22.3742 0.995534 22.4245 1.11693C22.4747 1.23832 22.5006 1.36843 22.5006 1.49982C22.5006 1.63122 22.4747 1.76133 22.4245 1.88272C22.3742 2.00411 22.3005 2.11441 22.2076 2.20732Z" fill="black"/>
</svg>
